<?xml version="1.0" encoding="UTF-8" standalone="no"?>
<svg width="48px" height="48px" viewBox="0 0 48 48" version="1.1" xmlns="http://www.w3.org/2000/svg" xmlns:xlink="http://www.w3.org/1999/xlink">
    <!-- Generator: Sketch 40.3 (33839) - http://www.bohemiancoding.com/sketch -->
    <title>Slice 1</title>
    <desc>Created with Sketch.</desc>
    <defs></defs>
    <g id="Page-1" stroke="none" stroke-width="1" fill="none" fill-rule="evenodd">
        <g id="cd-logo" transform="translate(4.000000, 4.000000)" fill="#20BF55">
            <g id="Layer_1">
                <g id="Page-1">
                    <g id="Artboard-1">
                        <circle id="logo" cx="20" cy="20" r="20"></circle>
                    </g>
                </g>
            </g>
        </g>
        <g id="noun_15752_cc" transform="translate(13.300000, 10.000000)" fill="#FBFBFF">
            <path d="M19.6875,14.1086436 L19.6875,10.7796733 L20.8054875,10.1910594 L19.7423625,9.59813861 C19.7071875,8.99 19.5685875,7.93451485 18.9727125,7.25 C18.5947125,6.81557426 18.0350625,6.59534653 17.44785,6.59534653 C17.42685,6.59534653 15.2247375,6.6349703 15.2247375,10.0503663 L15.302175,12.7958911 L15.302175,12.7958911 C15.3129375,12.9302673 15.3344625,13.3316733 15.135225,13.5691287 C15.0021375,13.7279109 14.8178625,13.8048614 14.5333125,13.8048614 C14.2487625,13.8048614 14.0167125,13.7276238 13.883625,13.5691287 C13.6849125,13.3316733 13.65,12.9302673 13.65,12.7987624 L13.65,12.2827921 L14.766675,11.6933168 L13.7080125,11.1038416 L13.718775,6.2740495 L14.7609,5.68514851 L13.65,5.09624752 L13.65,3.74186139 C13.65,0.326178218 10.6304625,0.286841584 10.59975,0.286841584 C9.5410875,0.286841584 8.7362625,0.625940594 8.169,1.29466337 C7.6085625,1.95534653 7.4573625,2.77509901 7.4137875,3.28762376 L6.43125,3.88255446 L7.6125,4.47116832 L7.6125,9.00148515 L6.53625,9.59009901 L7.6125,10.179 L7.6125,15.758198 L7.6125,15.8460594 C7.6232625,15.9807228 7.45815,16.335901 7.2589125,16.5733564 C7.125825,16.7321386 6.8977125,16.8090891 6.6131625,16.8090891 C6.3286125,16.8090891 6.1131,16.7318515 5.980275,16.5733564 C5.780775,16.335901 5.7584625,15.934495 5.7687,15.8029901 L5.766075,15.2864455 L6.842325,14.6969703 L5.7645,14.1080693 L5.7647625,13.0543069 C5.7647625,9.63891089 3.6332625,9.59957426 3.6117375,9.59957426 C3.0253125,9.59957426 2.5071375,9.81980198 2.1291375,10.2539406 C1.2697125,11.240802 1.3125,13.0017624 1.3125,13.0543069 L1.3125,13.2073465 L0.23625,13.7959604 L1.3125,14.3845743 L1.3125,18.0135941 L0.2646,18.602495 L1.410675,19.2212574 C1.4849625,19.5442772 1.7642625,19.989901 2.159325,20.4441386 C3.1313625,21.5619307 4.725,22.1557129 7.6125,22.2122772 L7.6125,24.0220495 L6.53625,24.6106634 L7.6125,25.1989901 L7.6125,28.0645347 L7.753725,28.1845545 C8.698725,28.6545842 9.6366375,28.8926139 10.6409625,28.8926139 C12.35535,28.8926139 13.454175,28.1980495 13.502475,28.1684752 L13.65,28.0392673 L13.65,26.7009604 L14.72625,26.1123465 L13.65,25.5243069 L13.65,22.1950495 L14.72625,21.6064356 L13.65,21.0178218 L13.65,19.2086238 C16.5375,19.153495 18.224325,18.5410495 19.1338875,17.3856436 C19.7229375,16.6382475 19.6875,15.923297 19.6875,15.7326436 L19.6875,15.2855842 L20.7634875,14.6969703 L19.6875,14.1086436 L19.6875,14.1086436 Z M18.555075,16.860198 C18.0009375,17.5366733 16.6522125,18.3762376 13.316625,18.3762376 L12.8625,18.3762376 L12.8625,20.5670297 L12.8625,22.6458416 L12.8625,25.0729406 L12.8625,27.1517525 L12.8625,27.4882673 C12.6,27.6642772 11.7455625,27.9904554 10.651725,27.9904554 C9.850575,27.9904554 9.1875,27.8178911 8.4,27.4773564 L8.4,25.6497822 L8.4,23.5712574 L8.4,21.2475248 L7.824075,21.2475248 C4.6704,21.2475248 3.24555,20.4872079 2.6452125,19.8207822 C2.1459375,19.2674851 2.1,18.7983168 2.1,18.7618515 L2.1,17.5630891 L2.1,14.8353663 L2.1,12.8208713 C2.1,12.3933366 2.234925,11.417099 2.7092625,10.8741386 C2.92845,10.622901 3.1245375,10.5008713 3.4804875,10.5008713 C3.493875,10.5008713 4.725,10.5301584 4.725,13.0540198 L4.725,13.6572772 L4.725,15.7363762 C4.725,15.9043465 4.79955,16.6359505 5.2460625,17.1751782 C5.4481875,17.4195248 5.88,17.7106733 6.53415,17.7106733 C7.1885625,17.7106733 7.6757625,17.4192376 7.877625,17.1751782 C8.323875,16.6359505 8.4,15.9043465 8.4,15.7389604 L8.4,10.6297921 L8.4,8.55069307 L8.4,4.92224752 L8.4,3.74186139 L8.4,3.5150297 C8.4,3.17305941 8.4189,2.44576238 8.875125,1.90825743 C9.2801625,1.43076238 9.839025,1.18871287 10.6575,1.18871287 C10.88955,1.19072277 12.8625,1.27772277 12.8625,3.74186139 L12.8625,4.64545545 L12.8625,6.72455446 L12.8625,10.6536238 L12.8625,12.7327228 C12.8625,12.9004059 12.8506875,13.6320099 13.2972,14.1712376 C13.4995875,14.4158713 13.887825,14.7067327 14.541975,14.7067327 C15.196125,14.7067327 15.6169125,14.4155842 15.8190375,14.1712376 C16.2652875,13.6320099 16.275,12.9004059 16.275,12.7350198 L16.275,10.0503663 C16.275,7.5669901 17.517675,7.49894059 17.565975,7.49721782 C17.9227125,7.49721782 18.1605375,7.61924752 18.38025,7.87019802 C18.856425,8.41574257 18.9,9.3980099 18.9,9.83272277 L18.9,10.0503663 L18.9,11.2307525 L18.9,13.6575644 L18.9,15.7366634 L18.9265125,15.8170594 C18.9291375,15.8365842 18.9826875,16.3373366 18.555075,16.860198 Z" id="Shape"></path>
        </g>
    </g>
</svg>